<svg width="42" height="42" viewBox="0 0 42 42" fill="none" xmlns="http://www.w3.org/2000/svg">
<rect width="42" height="42" rx="21" fill="#F5F5F5"/>
<path d="M28.7337 26.6134C28.3127 25.616 27.7016 24.7101 26.9346 23.946C26.17 23.1797 25.2642 22.5688 24.2672 22.1469C24.2583 22.1424 24.2494 22.1402 24.2404 22.1357C25.6311 21.1313 26.5351 19.4951 26.5351 17.6491C26.5351 14.5911 24.0574 12.1134 20.9994 12.1134C17.9413 12.1134 15.4636 14.5911 15.4636 17.6491C15.4636 19.4951 16.3677 21.1313 17.7583 22.138C17.7494 22.1424 17.7404 22.1447 17.7315 22.1491C16.7315 22.571 15.8342 23.1759 15.0641 23.9482C14.2978 24.7129 13.6869 25.6187 13.265 26.6156C12.8505 27.5917 12.627 28.6381 12.6065 29.6982C12.6059 29.7221 12.6101 29.7458 12.6188 29.7679C12.6275 29.7901 12.6406 29.8103 12.6572 29.8274C12.6738 29.8445 12.6937 29.858 12.7157 29.8673C12.7377 29.8765 12.7612 29.8813 12.7851 29.8813H14.1244C14.2226 29.8813 14.3007 29.8031 14.3029 29.7072C14.3476 27.9839 15.0395 26.3701 16.2628 25.1469C17.5284 23.8813 19.2092 23.1848 20.9994 23.1848C22.7895 23.1848 24.4703 23.8813 25.736 25.1469C26.9592 26.3701 27.6511 27.9839 27.6958 29.7072C27.698 29.8054 27.7761 29.8813 27.8744 29.8813H29.2136C29.2375 29.8813 29.2611 29.8765 29.283 29.8673C29.305 29.858 29.3249 29.8445 29.3415 29.8274C29.3582 29.8103 29.3712 29.7901 29.3799 29.7679C29.3886 29.7458 29.3928 29.7221 29.3922 29.6982C29.3699 28.6313 29.1489 27.5933 28.7337 26.6134ZM20.9994 21.4884C19.9748 21.4884 19.0105 21.0889 18.2851 20.3634C17.5596 19.638 17.1601 18.6737 17.1601 17.6491C17.1601 16.6246 17.5596 15.6603 18.2851 14.9348C19.0105 14.2094 19.9748 13.8098 20.9994 13.8098C22.0239 13.8098 22.9882 14.2094 23.7136 14.9348C24.4391 15.6603 24.8386 16.6246 24.8386 17.6491C24.8386 18.6737 24.4391 19.638 23.7136 20.3634C22.9882 21.0889 22.0239 21.4884 20.9994 21.4884Z" fill="#262626"/>
</svg>
